<?xml version="1.0" encoding="UTF-8"?>
<svg version="1.1" xmlns="http://www.w3.org/2000/svg" width="800" height="800">
<path d="M0 0 C0.82886719 0.32742187 1.65773437 0.65484375 2.51171875 0.9921875 C3.22972656 1.28351563 3.94773438 1.57484375 4.6875 1.875 C10.7643654 4.32091462 16.88169843 6.66008529 23 9 C23 9.66 23 10.32 23 11 C23.886875 11.28875 24.77375 11.5775 25.6875 11.875 C28.50382424 12.83148748 31.25083156 13.86798946 34 15 C34 15.66 34 16.32 34 17 C34.7115625 17.25136719 35.423125 17.50273437 36.15625 17.76171875 C45.94808274 22.0254701 53.32748688 29.92274728 60 38 C62.2679236 40.64591087 63.82868758 41.44642451 67.25 42.0625 C71.25132369 42.84180854 75.09387081 43.83647216 79 45 C79 45.66 79 46.32 79 47 C80.50626953 47.18175781 80.50626953 47.18175781 82.04296875 47.3671875 C90.72176823 48.4264614 99.3665779 49.61037384 108 51 C108 51.66 108 52.32 108 53 C108.74378906 53.03738281 109.48757813 53.07476562 110.25390625 53.11328125 C118.32069269 53.59900275 126.29868154 54.46854301 134.3125 55.5 C135.34511963 55.63059814 136.37773926 55.76119629 137.44165039 55.89575195 C138.40578857 56.02296631 139.36992676 56.15018066 140.36328125 56.28125 C141.23251221 56.39533203 142.10174316 56.50941406 142.99731445 56.62695312 C145 57 145 57 146 58 C148.36451259 58.30462631 150.70682575 58.54556643 153.08105469 58.74511719 C154.20407612 58.84207256 154.20407612 58.84207256 155.34978485 58.94098663 C157.87314779 59.15246517 160.39718577 59.35187924 162.921875 59.546875 C163.80133537 59.61492088 164.68079575 59.68296677 165.58690643 59.75307465 C188.05119346 61.4387462 210.49576166 61.3828899 233.0098877 61.26428223 C237.37226655 61.24505311 241.73460357 61.24111577 246.0970192 61.2375679 C251.40323954 61.23237465 256.70942435 61.21793622 262.015625 61.203125 C262.98687569 61.20124428 263.95812637 61.19936356 264.9588089 61.19742584 C275.71200879 61.17042916 286.42562051 60.97966448 297.1624794 60.35637283 C302.65202804 60.03936653 308.12645427 59.90189373 313.625 59.875 C314.3385754 59.87031078 315.0521508 59.86562157 315.7873497 59.86079025 C320.75332187 59.87666094 320.75332187 59.87666094 323 61 C323.28875 59.865625 323.5775 58.73125 323.875 57.5625 C324.24625 56.386875 324.6175 55.21125 325 54 C325.66 53.67 326.32 53.34 327 53 C327.86266381 51.57076821 328.66799768 50.10647175 329.4375 48.625 C331.02642904 45.56668518 332.57535966 43.41788647 335 41 C335.33 40.01 335.66 39.02 336 38 C339.09395662 34.64821366 342.43695209 31.83216629 346 29 C346.61875 28.360625 347.2375 27.72125 347.875 27.0625 C353.80666503 21.30529571 360.50351675 17 369 17 C369 16.34 369 15.68 369 15 C377.63777176 13.13841126 386.19602786 11.5976784 394.98242188 10.64697266 C398.27788026 10.52895315 398.27788026 10.52895315 401 9 C409.99682637 7.73262098 419.24485192 7.84249448 428.3125 7.75 C429.42101318 7.7286499 430.52952637 7.7072998 431.67163086 7.68530273 C438.41810852 7.65746447 443.76064204 8.47768993 450 11 C451.15628906 11.38542969 452.31257812 11.77085937 453.50390625 12.16796875 C456.3359375 13.11197917 459.16796875 14.05598958 462 15 C462 15.66 462 16.32 462 17 C462.928125 17.28875 463.85625 17.5775 464.8125 17.875 C468 19 468 19 471 21 C471 21.66 471 22.32 471 23 C471.8353125 23.3403125 471.8353125 23.3403125 472.6875 23.6875 C475.65855185 25.37377267 477.64522125 27.530354 480 30 C480.825 30.825 481.65 31.65 482.5 32.5 C483.325 33.325 484.15 34.15 485 35 C485.763125 35.70125 486.52625 36.4025 487.3125 37.125 C498 48.55813953 498 48.55813953 498 53 C498.66 53 499.32 53 500 53 C504 59.75 504 59.75 504 62 C504.66 62 505.32 62 506 62 C506.32613281 62.66386719 506.65226563 63.32773438 506.98828125 64.01171875 C509.69451662 69.50784706 509.69451662 69.50784706 512.75 74.8125 C514.11986479 77.20976338 514.47735655 79.31211941 515 82 C515.66 82.33 516.32 82.66 517 83 C518.0703125 84.7421875 518.0703125 84.7421875 519.125 86.875 C519.47820313 87.57367188 519.83140625 88.27234375 520.1953125 88.9921875 C521 91 521 91 521 94 C521.66 94.33 522.32 94.66 523 95 C525.13607512 99.35759324 526.40802528 103.14580734 527 108 C527.66 108 528.32 108 529 108 C529.14099121 108.54938232 529.28198242 109.09876465 529.42724609 109.66479492 C530.07307317 112.17325921 530.72398903 114.68037629 531.375 117.1875 C531.59671875 118.05181641 531.8184375 118.91613281 532.046875 119.80664062 C532.26601563 120.64775391 532.48515625 121.48886719 532.7109375 122.35546875 C532.90993652 123.12528076 533.10893555 123.89509277 533.31396484 124.68823242 C533.9732586 127.05494613 533.9732586 127.05494613 535.01806641 129.46728516 C536.021969 132.05666494 536.54782713 134.43146495 537 137.16796875 C537.165 138.14443359 537.33 139.12089844 537.5 140.12695312 C537.665 141.13693359 537.83 142.14691406 538 143.1875 C538.33206729 145.18120087 538.66539107 147.17469288 539 149.16796875 C539.1645166 150.15821045 539.3290332 151.14845215 539.49853516 152.16870117 C539.94238635 154.6747101 540.46869257 157.14191922 541.0234375 159.625 C552.07138945 214.5999116 545.78067221 277.03929596 543.0625 332.625 C542.99410479 334.02806396 542.99410479 334.02806396 542.92432785 335.45947266 C542.62055859 341.65340613 542.30174046 347.84642634 541.97265625 354.0390625 C541.93098957 354.8412685 541.88932289 355.6434745 541.84639359 356.46998978 C541.72911692 358.70374513 541.6060032 360.93709172 541.48071289 363.17041016 C541.41187393 364.42375153 541.34303497 365.6770929 541.27210999 366.96841431 C541 370 541 370 540 373 C539.90303544 375.7197643 539.86002702 378.41314972 539.8671875 381.1328125 C539.86623077 381.9252536 539.86527405 382.7176947 539.86428833 383.53414917 C539.86360841 385.20684895 539.86544958 386.87955139 539.86962891 388.55224609 C539.87499401 391.12212998 539.86967032 393.69184021 539.86328125 396.26171875 C539.86394179 397.88541705 539.86522244 399.50911525 539.8671875 401.1328125 C539.86516327 401.90569611 539.86313904 402.67857971 539.86105347 403.47488403 C539.54627888 407.03223741 539.54627888 407.03223741 541 410 C541.19228895 412.0412212 541.37876571 414.082991 541.5625 416.125 C542.26897206 420.95958862 542.88268038 423.66140422 546.6875 426.8125 C547.39261719 427.328125 548.09773437 427.84375 548.82421875 428.375 C551.20332075 430.15185176 553.04438494 432.08206328 555 434.3125 C555.86625 435.29669922 555.86625 435.29669922 556.75 436.30078125 C558 438 558 438 558 440 C558.99 440.33 559.98 440.66 561 441 C561.69937532 442.31647119 562.36729133 443.65022151 563 445 C563.66 445.33 564.32 445.66 565 446 C566.0703125 447.9609375 566.0703125 447.9609375 567.125 450.375 C567.47820313 451.16648437 567.83140625 451.95796875 568.1953125 452.7734375 C569 455 569 455 569 458 C569.66 458 570.32 458 571 458 C574.21671836 469.14363146 575.51595588 479.70005622 572 491 C570.5625 492.5859375 570.5625 492.5859375 569 494 C568.22937976 495.20361088 567.49851923 496.43374072 566.8125 497.6875 C566.214375 498.780625 565.61625 499.87375 565 501 C564.34 501 563.68 501 563 501 C562.67 501.99 562.34 502.98 562 504 C560.35178756 505.03013277 558.68496298 506.03114628 557 507 C556.67 507.66 556.34 508.32 556 509 C540.84693878 518 540.84693878 518 534 518 C534 518.66 534 519.32 534 520 C531.12666819 520.67466072 528.25168518 521.3399234 525.375 522 C524.16263672 522.28617188 524.16263672 522.28617188 522.92578125 522.578125 C518.52795831 523.57925543 514.54438961 524.2353082 510 524 C510 524.66 510 525.32 510 526 C492.40708249 528.35686591 475.05065311 529.30947855 457.3125 529.3125 C456.39440552 529.31572266 455.47631104 529.31894531 454.53039551 529.32226562 C444.84342953 529.34303732 435.2470947 529.08896596 425.60546875 528.10546875 C424.8400325 528.02823074 424.07459625 527.95099274 423.28596497 527.87141418 C418.6848471 527.34832512 414.43476109 526.38828182 410 525 C409.2687793 524.78408203 408.53755859 524.56816406 407.78417969 524.34570312 C405.77119124 523.73557868 403.76032284 523.11884938 401.75 522.5 C401.04359375 522.28730469 400.3371875 522.07460938 399.609375 521.85546875 C396.36918952 520.85518422 393.84226714 519.89484476 391 518 C390.690625 518.61875 390.38125 519.2375 390.0625 519.875 C389.375 521.25 388.6875 522.625 388 524 C387.34 524 386.68 524 386 524 C385.7525 524.61875 385.505 525.2375 385.25 525.875 C383.76259631 528.40358627 382.56321991 528.71839004 380 530 C379.67 530.66 379.34 531.32 379 532 C377.73223544 534.53552912 376.53176935 534.84919575 374 536 C373.3503125 536.7115625 373.3503125 536.7115625 372.6875 537.4375 C369.01496237 540.83799781 364.8972618 542 360 542 C360 542.66 360 543.32 360 544 C350.76 544 341.52 544 332 544 C332 543.34 332 542.68 332 542 C331.34 541.896875 330.68 541.79375 330 541.6875 C326.16158991 540.80786436 322.66903309 539.43030104 319 538 C319 537.34 319 536.68 319 536 C318.2575 535.71125 317.515 535.4225 316.75 535.125 C314.43260203 534.17697356 312.22082885 533.15154089 310 532 C310 531.34 310 530.68 310 530 C309.28328125 529.7525 308.5665625 529.505 307.828125 529.25 C299.41213597 525.53022584 292.78916483 518.01318721 286.875 511.1640625 C285.08228032 509.0246662 285.08228032 509.0246662 283.25 507.3359375 C282 506 282 506 282 504 C281.44634766 504.35658691 280.89269531 504.71317383 280.32226562 505.08056641 C272.70859455 509.47981572 266.14772049 509.63514927 257.5 509.375 C255.58960938 509.35373047 255.58960938 509.35373047 253.640625 509.33203125 C244.36813187 509.18406593 244.36813187 509.18406593 242 508 C240.49473598 507.79698562 238.98243919 507.64490413 237.46875 507.51928711 C236.52596191 507.43927963 235.58317383 507.35927216 234.61181641 507.27684021 C233.07146729 507.15333946 233.07146729 507.15333946 231.5 507.02734375 C230.43571777 506.93997452 229.37143555 506.85260529 228.27490234 506.7625885 C226.00863939 506.57807836 223.74219308 506.39580893 221.47558594 506.21557617 C218.06892562 505.94301463 214.66341341 505.65850032 211.2578125 505.37304688 C201.41983842 504.56807912 191.58429383 503.81952534 181.7109375 503.6875 C180.99752197 503.66916611 180.28410645 503.65083221 179.54907227 503.63194275 C173.89407806 503.63440107 170.60122564 505.37841206 166.37890625 508.9765625 C163.60758969 511.33377429 160.70235384 513.10373554 157.5625 514.9375 C156.07943359 515.81728516 156.07943359 515.81728516 154.56640625 516.71484375 C152 518 152 518 149 518 C149 518.66 149 519.32 149 520 C148.0821875 520.32613281 147.164375 520.65226563 146.21875 520.98828125 C144.37796875 521.64376953 144.37796875 521.64376953 142.5 522.3125 C141.53477417 522.65535034 141.53477417 522.65535034 140.55004883 523.00512695 C137.24167322 524.18409807 133.95378261 525.39695249 130.6875 526.6875 C124.9447475 528.73153055 119.14933669 530.3967314 113 530 C113 530.66 113 531.32 113 532 C99.79749568 533.6267112 87.45838279 534.4280646 74.1875 533.125 C73.37418213 533.04668945 72.56086426 532.96837891 71.72290039 532.88769531 C67.21571573 532.40244206 63.27740873 531.57436424 59 530 C56.5451086 529.27982843 54.08665686 528.57169534 51.625 527.875 C50.37976563 527.52179687 49.13453125 527.16859375 47.8515625 526.8046875 C46.91054687 526.53914062 45.96953125 526.27359375 45 526 C45 525.34 45 524.68 45 524 C43.948125 523.87625 43.948125 523.87625 42.875 523.75 C39.29187733 522.81527235 36.98498627 521.17655248 34 519 C33.113125 518.360625 32.22625 517.72125 31.3125 517.0625 C28.85719745 514.87263556 27.43724694 512.95013846 26 510 C26 509.01 26 508.02 26 507 C25.34 507 24.68 507 24 507 C24 506.01 24 505.02 24 504 C23.10539063 504.19335938 22.21078125 504.38671875 21.2890625 504.5859375 C18.76391188 505.12973326 16.23803893 505.66861849 13.7109375 506.203125 C11.62808284 506.65039063 9.54737347 507.109303 7.4765625 507.609375 C-10.85250682 511.85400158 -54.84300219 516.5784989 -72 508 C-74.27873476 507.68333406 -76.56417347 507.41446589 -78.8515625 507.16796875 C-80.27608789 507.00757146 -81.70056544 506.84674881 -83.125 506.68554688 C-85.3507729 506.43756674 -87.57672207 506.19263399 -89.80371094 505.95581055 C-100.50275763 504.80913816 -110.61729924 502.85499095 -121 500 C-122.16869629 499.68571045 -123.33739258 499.3714209 -124.54150391 499.04760742 C-127.03101864 498.37643688 -129.5168916 497.69442862 -132 497 C-132 496.34 -132 495.68 -132 495 C-132.845625 494.896875 -133.69125 494.79375 -134.5625 494.6875 C-138.41442701 493.9171146 -141.44075031 492.63725486 -145 491 C-145 490.34 -145 489.68 -145 489 C-145.886875 488.74476563 -146.77375 488.48953125 -147.6875 488.2265625 C-156.06384708 485.12494341 -162.19462251 478.32170692 -167 471 C-167.99 469.515 -167.99 469.515 -169 468 C-169 467.01 -169 466.02 -169 465 C-169.66 464.67 -170.32 464.34 -171 464 C-176.92039419 450.48790417 -175.98198576 433.83639645 -170.91015625 420.2265625 C-170.60980469 419.49179687 -170.30945313 418.75703125 -170 418 C-169.62746094 417.07960938 -169.25492188 416.15921875 -168.87109375 415.2109375 C-167.60185525 412.13134314 -166.30235403 409.06571833 -165 406 C-164.1446972 403.93797089 -163.29051239 401.87547766 -162.4375 399.8125 C-160.95470293 396.24073095 -159.42171132 392.70392474 -157.8125 389.1875 C-156.15812996 385.51707578 -154.9954586 381.89887952 -154 378 C-153.34 378 -152.68 378 -152 378 C-150.15753905 365.90639991 -149.39448713 353.76760848 -148.69775391 341.56616211 C-148.62089355 340.26042236 -148.5440332 338.95468262 -148.46484375 337.609375 C-148.399021 336.43342773 -148.33319824 335.25748047 -148.26538086 334.04589844 C-148 331 -148 331 -147.49150085 329.1401062 C-146.91020874 326.60902848 -146.8728356 324.30982676 -146.87060547 321.71240234 C-146.86745331 320.65806 -146.86430115 319.60371765 -146.86105347 318.51742554 C-146.8630777 317.38503448 -146.86510193 316.25264343 -146.8671875 315.0859375 C-146.86623077 313.91995026 -146.86527405 312.75396301 -146.86428833 311.55264282 C-146.86360812 309.08978217 -146.8654513 306.62691971 -146.86962891 304.1640625 C-146.87498898 300.38277186 -146.86967354 296.60159949 -146.86328125 292.8203125 C-146.86394187 290.42968724 -146.8652227 288.03906205 -146.8671875 285.6484375 C-146.86516327 284.51199799 -146.86313904 283.37555847 -146.86105347 282.2046814 C-146.86420563 281.15664337 -146.86735779 280.10860535 -146.87060547 279.02880859 C-146.87140106 278.10377533 -146.87219666 277.17874207 -146.87301636 276.22567749 C-146.85506623 273.96025106 -146.85506623 273.96025106 -148 272 C-148.14907254 270.15073292 -148.23721016 268.296437 -148.29711914 266.44213867 C-148.33706497 265.26100494 -148.3770108 264.07987122 -148.41816711 262.86294556 C-148.45677353 261.56110321 -148.49537994 260.25926086 -148.53515625 258.91796875 C-148.57857894 257.53982002 -148.62217745 256.16167682 -148.66593933 254.78353882 C-148.8070885 250.25177223 -148.93539237 245.71967875 -149.0625 241.1875 C-149.08457016 240.41454967 -149.10664032 239.64159935 -149.12937927 238.84522629 C-149.81433291 214.82074641 -150.21726173 190.80277947 -150.24631882 166.7683754 C-150.24995346 164.59038843 -150.25724106 162.41244078 -150.26541138 160.23446655 C-150.38529164 124.02755597 -150.38529164 124.02755597 -148 110 C-147.67 109.67 -147.34 109.34 -147 109 C-146.59513792 107.0278509 -146.24330063 105.04476787 -145.9140625 103.05859375 C-145.70523438 101.83462891 -145.49640625 100.61066406 -145.28125 99.34960938 C-144.84842483 96.76940459 -144.41866816 94.18868293 -143.9921875 91.60742188 C-142.86823852 85.05219506 -141.56737861 79.13357301 -139 73 C-138.50013173 71.36033547 -138.01735077 69.71521862 -137.5625 68.0625 C-136.33368836 63.85867071 -134.7557601 59.95569424 -132.91796875 55.984375 C-131.85636065 53.68949451 -130.91265685 51.35769687 -130 49 C-129.34 49 -128.68 49 -128 49 C-127.7421875 48.13117188 -127.484375 47.26234375 -127.21875 46.3671875 C-125.97873798 42.94125685 -124.45968465 40.1890832 -122.5 37.125 C-121.58734375 35.67480469 -121.58734375 35.67480469 -120.65625 34.1953125 C-120.1096875 33.47085938 -119.563125 32.74640625 -119 32 C-118.34 32 -117.68 32 -117 32 C-116.773125 31.2575 -116.54625 30.515 -116.3125 29.75 C-114.72462601 26.42302592 -112.93990588 25.18783693 -110 23 C-107.67271375 20.72947683 -105.40078843 18.41858242 -103.15234375 16.0703125 C-98.03201115 11.1451287 -91.99078129 6.65571136 -85 5 C-85 4.34 -85 3.68 -85 3 C-83.39850114 2.32694982 -81.79368971 1.66177773 -80.1875 1 C-79.29417969 0.62875 -78.40085937 0.2575 -77.48046875 -0.125 C-75 -1 -75 -1 -72 -1 C-72 -1.66 -72 -2.32 -72 -3 C-70.14703165 -3.48377991 -68.29255559 -3.96178636 -66.4375 -4.4375 C-65.40496094 -4.70433594 -64.37242187 -4.97117188 -63.30859375 -5.24609375 C-42.66677401 -9.94960167 -19.59902334 -7.88698022 0 0 Z " fill="#6FA557" transform="translate(203,144)"/>
<path d="M0 0 C0.82886719 0.32742187 1.65773437 0.65484375 2.51171875 0.9921875 C3.22972656 1.28351563 3.94773438 1.57484375 4.6875 1.875 C10.7643654 4.32091462 16.88169843 6.66008529 23 9 C23 9.66 23 10.32 23 11 C23.886875 11.28875 24.77375 11.5775 25.6875 11.875 C28.50382424 12.83148748 31.25083156 13.86798946 34 15 C34 15.66 34 16.32 34 17 C34.7115625 17.25136719 35.423125 17.50273437 36.15625 17.76171875 C45.94808274 22.0254701 53.32748688 29.92274728 60 38 C62.2679236 40.64591087 63.82868758 41.44642451 67.25 42.0625 C71.25132369 42.84180854 75.09387081 43.83647216 79 45 C79 45.66 79 46.32 79 47 C80.50626953 47.18175781 80.50626953 47.18175781 82.04296875 47.3671875 C90.72176823 48.4264614 99.3665779 49.61037384 108 51 C108 51.66 108 52.32 108 53 C108.74378906 53.03738281 109.48757813 53.07476562 110.25390625 53.11328125 C118.32069269 53.59900275 126.29868154 54.46854301 134.3125 55.5 C135.34511963 55.63059814 136.37773926 55.76119629 137.44165039 55.89575195 C138.40578857 56.02296631 139.36992676 56.15018066 140.36328125 56.28125 C141.23251221 56.39533203 142.10174316 56.50941406 142.99731445 56.62695312 C145 57 145 57 146 58 C148.36451259 58.30462631 150.70682575 58.54556643 153.08105469 58.74511719 C154.20407612 58.84207256 154.20407612 58.84207256 155.34978485 58.94098663 C157.87314779 59.15246517 160.39718577 59.35187924 162.921875 59.546875 C163.80133537 59.61492088 164.68079575 59.68296677 165.58690643 59.75307465 C188.05119346 61.4387462 210.49576166 61.3828899 233.0098877 61.26428223 C237.37226655 61.24505311 241.73460357 61.24111577 246.0970192 61.2375679 C251.40323954 61.23237465 256.70942435 61.21793622 262.015625 61.203125 C262.98687569 61.20124428 263.95812637 61.19936356 264.9588089 61.19742584 C275.71200879 61.17042916 286.42562051 60.97966448 297.1624794 60.35637283 C302.65202804 60.03936653 308.12645427 59.90189373 313.625 59.875 C314.3385754 59.87031078 315.0521508 59.86562157 315.7873497 59.86079025 C320.75332187 59.87666094 320.75332187 59.87666094 323 61 C323.28875 59.865625 323.5775 58.73125 323.875 57.5625 C324.24625 56.386875 324.6175 55.21125 325 54 C325.66 53.67 326.32 53.34 327 53 C327.86266381 51.57076821 328.66799768 50.10647175 329.4375 48.625 C331.02642904 45.56668518 332.57535966 43.41788647 335 41 C335.33 40.01 335.66 39.02 336 38 C339.09395662 34.64821366 342.43695209 31.83216629 346 29 C346.61875 28.360625 347.2375 27.72125 347.875 27.0625 C353.80666503 21.30529571 360.50351675 17 369 17 C369 16.34 369 15.68 369 15 C377.63777176 13.13841126 386.19602786 11.5976784 394.98242188 10.64697266 C398.27788026 10.52895315 398.27788026 10.52895315 401 9 C409.99682637 7.73262098 419.24485192 7.84249448 428.3125 7.75 C429.42101318 7.7286499 430.52952637 7.7072998 431.67163086 7.68530273 C438.41810852 7.65746447 443.76064204 8.47768993 450 11 C451.15628906 11.38542969 452.31257812 11.77085937 453.50390625 12.16796875 C456.3359375 13.11197917 459.16796875 14.05598958 462 15 C462 15.66 462 16.32 462 17 C462.928125 17.28875 463.85625 17.5775 464.8125 17.875 C468 19 468 19 471 21 C471 21.66 471 22.32 471 23 C471.8353125 23.3403125 471.8353125 23.3403125 472.6875 23.6875 C475.65855185 25.37377267 477.64522125 27.530354 480 30 C480.825 30.825 481.65 31.65 482.5 32.5 C483.325 33.325 484.15 34.15 485 35 C485.763125 35.70125 486.52625 36.4025 487.3125 37.125 C498 48.55813953 498 48.55813953 498 53 C498.66 53 499.32 53 500 53 C504 59.75 504 59.75 504 62 C504.66 62 505.32 62 506 62 C506.32613281 62.66386719 506.65226563 63.32773438 506.98828125 64.01171875 C509.69451662 69.50784706 509.69451662 69.50784706 512.75 74.8125 C514.11986479 77.20976338 514.47735655 79.31211941 515 82 C515.66 82.33 516.32 82.66 517 83 C518.0703125 84.7421875 518.0703125 84.7421875 519.125 86.875 C519.47820313 87.57367188 519.83140625 88.27234375 520.1953125 88.9921875 C521 91 521 91 521 94 C521.66 94.33 522.32 94.66 523 95 C525.13607512 99.35759324 526.40802528 103.14580734 527 108 C527.66 108 528.32 108 529 108 C529.14099121 108.54938232 529.28198242 109.09876465 529.42724609 109.66479492 C530.07307317 112.17325921 530.72398903 114.68037629 531.375 117.1875 C531.59671875 118.05181641 531.8184375 118.91613281 532.046875 119.80664062 C532.26601563 120.64775391 532.48515625 121.48886719 532.7109375 122.35546875 C532.90993652 123.12528076 533.10893555 123.89509277 533.31396484 124.68823242 C533.9732586 127.05494613 533.9732586 127.05494613 535.01806641 129.46728516 C536.021969 132.05666494 536.54782713 134.43146495 537 137.16796875 C537.165 138.14443359 537.33 139.12089844 537.5 140.12695312 C537.665 141.13693359 537.83 142.14691406 538 143.1875 C538.33206729 145.18120087 538.66539107 147.17469288 539 149.16796875 C539.1645166 150.15821045 539.3290332 151.14845215 539.49853516 152.16870117 C539.94238635 154.6747101 540.46869257 157.14191922 541.0234375 159.625 C552.07138945 214.5999116 545.78067221 277.03929596 543.0625 332.625 C542.99410479 334.02806396 542.99410479 334.02806396 542.92432785 335.45947266 C542.62055859 341.65340613 542.30174046 347.84642634 541.97265625 354.0390625 C541.93098957 354.8412685 541.88932289 355.6434745 541.84639359 356.46998978 C541.72911692 358.70374513 541.6060032 360.93709172 541.48071289 363.17041016 C541.41187393 364.42375153 541.34303497 365.6770929 541.27210999 366.96841431 C541 370 541 370 540 373 C539.90303544 375.7197643 539.86002702 378.41314972 539.8671875 381.1328125 C539.86623077 381.9252536 539.86527405 382.7176947 539.86428833 383.53414917 C539.86360841 385.20684895 539.86544958 386.87955139 539.86962891 388.55224609 C539.87499401 391.12212998 539.86967032 393.69184021 539.86328125 396.26171875 C539.86394179 397.88541705 539.86522244 399.50911525 539.8671875 401.1328125 C539.86516327 401.90569611 539.86313904 402.67857971 539.86105347 403.47488403 C539.54627888 407.03223741 539.54627888 407.03223741 541 410 C541.19228895 412.0412212 541.37876571 414.082991 541.5625 416.125 C542.26897206 420.95958862 542.88268038 423.66140422 546.6875 426.8125 C547.39261719 427.328125 548.09773437 427.84375 548.82421875 428.375 C551.20332075 430.15185176 553.04438494 432.08206328 555 434.3125 C555.86625 435.29669922 555.86625 435.29669922 556.75 436.30078125 C558 438 558 438 558 440 C558.99 440.33 559.98 440.66 561 441 C561.69937532 442.31647119 562.36729133 443.65022151 563 445 C563.66 445.33 564.32 445.66 565 446 C566.0703125 447.9609375 566.0703125 447.9609375 567.125 450.375 C567.47820313 451.16648437 567.83140625 451.95796875 568.1953125 452.7734375 C569 455 569 455 569 458 C569.66 458 570.32 458 571 458 C574.21671836 469.14363146 575.51595588 479.70005622 572 491 C570.5625 492.5859375 570.5625 492.5859375 569 494 C568.22937976 495.20361088 567.49851923 496.43374072 566.8125 497.6875 C566.214375 498.780625 565.61625 499.87375 565 501 C564.34 501 563.68 501 563 501 C562.67 501.99 562.34 502.98 562 504 C560.35178756 505.03013277 558.68496298 506.03114628 557 507 C556.67 507.66 556.34 508.32 556 509 C540.84693878 518 540.84693878 518 534 518 C534 518.66 534 519.32 534 520 C531.12666819 520.67466072 528.25168518 521.3399234 525.375 522 C524.16263672 522.28617188 524.16263672 522.28617188 522.92578125 522.578125 C518.52795831 523.57925543 514.54438961 524.2353082 510 524 C510 524.66 510 525.32 510 526 C492.40708249 528.35686591 475.05065311 529.30947855 457.3125 529.3125 C456.39440552 529.31572266 455.47631104 529.31894531 454.53039551 529.32226562 C444.84342953 529.34303732 435.2470947 529.08896596 425.60546875 528.10546875 C424.8400325 528.02823074 424.07459625 527.95099274 423.28596497 527.87141418 C418.6848471 527.34832512 414.43476109 526.38828182 410 525 C409.2687793 524.78408203 408.53755859 524.56816406 407.78417969 524.34570312 C405.77119124 523.73557868 403.76032284 523.11884938 401.75 522.5 C401.04359375 522.28730469 400.3371875 522.07460938 399.609375 521.85546875 C396.36918952 520.85518422 393.84226714 519.89484476 391 518 C390.690625 518.61875 390.38125 519.2375 390.0625 519.875 C389.375 521.25 388.6875 522.625 388 524 C387.34 524 386.68 524 386 524 C385.7525 524.61875 385.505 525.2375 385.25 525.875 C383.76259631 528.40358627 382.56321991 528.71839004 380 530 C379.67 530.66 379.34 531.32 379 532 C377.73223544 534.53552912 376.53176935 534.84919575 374 536 C373.3503125 536.7115625 373.3503125 536.7115625 372.6875 537.4375 C369.01496237 540.83799781 364.8972618 542 360 542 C360 542.66 360 543.32 360 544 C350.76 544 341.52 544 332 544 C332 543.34 332 542.68 332 542 C331.34 541.896875 330.68 541.79375 330 541.6875 C326.16158991 540.80786436 322.66903309 539.43030104 319 538 C319 537.34 319 536.68 319 536 C318.2575 535.71125 317.515 535.4225 316.75 535.125 C314.43260203 534.17697356 312.22082885 533.15154089 310 532 C310 531.34 310 530.68 310 530 C309.28328125 529.7525 308.5665625 529.505 307.828125 529.25 C299.41213597 525.53022584 292.78916483 518.01318721 286.875 511.1640625 C285.08228032 509.0246662 285.08228032 509.0246662 283.25 507.3359375 C282 506 282 506 282 504 C281.44634766 504.35658691 280.89269531 504.71317383 280.32226562 505.08056641 C272.70859455 509.47981572 266.14772049 509.63514927 257.5 509.375 C255.58960938 509.35373047 255.58960938 509.35373047 253.640625 509.33203125 C244.36813187 509.18406593 244.36813187 509.18406593 242 508 C240.49473598 507.79698562 238.98243919 507.64490413 237.46875 507.51928711 C236.52596191 507.43927963 235.58317383 507.35927216 234.61181641 507.27684021 C233.07146729 507.15333946 233.07146729 507.15333946 231.5 507.02734375 C230.43571777 506.93997452 229.37143555 506.85260529 228.27490234 506.7625885 C226.00863939 506.57807836 223.74219308 506.39580893 221.47558594 506.21557617 C218.06892562 505.94301463 214.66341341 505.65850032 211.2578125 505.37304688 C201.41983842 504.56807912 191.58429383 503.81952534 181.7109375 503.6875 C180.99752197 503.66916611 180.28410645 503.65083221 179.54907227 503.63194275 C173.89407806 503.63440107 170.60122564 505.37841206 166.37890625 508.9765625 C163.60758969 511.33377429 160.70235384 513.10373554 157.5625 514.9375 C156.07943359 515.81728516 156.07943359 515.81728516 154.56640625 516.71484375 C152 518 152 518 149 518 C149 518.66 149 519.32 149 520 C148.0821875 520.32613281 147.164375 520.65226563 146.21875 520.98828125 C144.37796875 521.64376953 144.37796875 521.64376953 142.5 522.3125 C141.53477417 522.65535034 141.53477417 522.65535034 140.55004883 523.00512695 C137.24167322 524.18409807 133.95378261 525.39695249 130.6875 526.6875 C124.9447475 528.73153055 119.14933669 530.3967314 113 530 C113 530.66 113 531.32 113 532 C99.79749568 533.6267112 87.45838279 534.4280646 74.1875 533.125 C73.37418213 533.04668945 72.56086426 532.96837891 71.72290039 532.88769531 C67.21571573 532.40244206 63.27740873 531.57436424 59 530 C56.5451086 529.27982843 54.08665686 528.57169534 51.625 527.875 C50.37976563 527.52179687 49.13453125 527.16859375 47.8515625 526.8046875 C46.91054687 526.53914062 45.96953125 526.27359375 45 526 C45 525.34 45 524.68 45 524 C43.948125 523.87625 43.948125 523.87625 42.875 523.75 C39.29187733 522.81527235 36.98498627 521.17655248 34 519 C33.113125 518.360625 32.22625 517.72125 31.3125 517.0625 C28.85719745 514.87263556 27.43724694 512.95013846 26 510 C26 509.01 26 508.02 26 507 C25.34 507 24.68 507 24 507 C24 506.01 24 505.02 24 504 C23.10539063 504.19335938 22.21078125 504.38671875 21.2890625 504.5859375 C18.76391188 505.12973326 16.23803893 505.66861849 13.7109375 506.203125 C11.62808284 506.65039063 9.54737347 507.109303 7.4765625 507.609375 C-10.85250682 511.85400158 -54.84300219 516.5784989 -72 508 C-74.27873476 507.68333406 -76.56417347 507.41446589 -78.8515625 507.16796875 C-80.27608789 507.00757146 -81.70056544 506.84674881 -83.125 506.68554688 C-85.3507729 506.43756674 -87.57672207 506.19263399 -89.80371094 505.95581055 C-100.50275763 504.80913816 -110.61729924 502.85499095 -121 500 C-122.16869629 499.68571045 -123.33739258 499.3714209 -124.54150391 499.04760742 C-127.03101864 498.37643688 -129.5168916 497.69442862 -132 497 C-132 496.34 -132 495.68 -132 495 C-132.845625 494.896875 -133.69125 494.79375 -134.5625 494.6875 C-138.41442701 493.9171146 -141.44075031 492.63725486 -145 491 C-145 490.34 -145 489.68 -145 489 C-145.886875 488.74476563 -146.77375 488.48953125 -147.6875 488.2265625 C-156.06384708 485.12494341 -162.19462251 478.32170692 -167 471 C-167.99 469.515 -167.99 469.515 -169 468 C-169 467.01 -169 466.02 -169 465 C-169.66 464.67 -170.32 464.34 -171 464 C-176.92039419 450.48790417 -175.98198576 433.83639645 -170.91015625 420.2265625 C-170.60980469 419.49179687 -170.30945313 418.75703125 -170 418 C-169.62746094 417.07960938 -169.25492188 416.15921875 -168.87109375 415.2109375 C-167.60185525 412.13134314 -166.30235403 409.06571833 -165 406 C-164.1446972 403.93797089 -163.29051239 401.87547766 -162.4375 399.8125 C-160.95470293 396.24073095 -159.42171132 392.70392474 -157.8125 389.1875 C-156.15812996 385.51707578 -154.9954586 381.89887952 -154 378 C-153.34 378 -152.68 378 -152 378 C-150.15753905 365.90639991 -149.39448713 353.76760848 -148.69775391 341.56616211 C-148.62089355 340.26042236 -148.5440332 338.95468262 -148.46484375 337.609375 C-148.399021 336.43342773 -148.33319824 335.25748047 -148.26538086 334.04589844 C-148 331 -148 331 -147.49150085 329.1401062 C-146.91020874 326.60902848 -146.8728356 324.30982676 -146.87060547 321.71240234 C-146.86745331 320.65806 -146.86430115 319.60371765 -146.86105347 318.51742554 C-146.8630777 317.38503448 -146.86510193 316.25264343 -146.8671875 315.0859375 C-146.86623077 313.91995026 -146.86527405 312.75396301 -146.86428833 311.55264282 C-146.86360812 309.08978217 -146.8654513 306.62691971 -146.86962891 304.1640625 C-146.87498898 300.38277186 -146.86967354 296.60159949 -146.86328125 292.8203125 C-146.86394187 290.42968724 -146.8652227 288.03906205 -146.8671875 285.6484375 C-146.86516327 284.51199799 -146.86313904 283.37555847 -146.86105347 282.2046814 C-146.86420563 281.15664337 -146.86735779 280.10860535 -146.87060547 279.02880859 C-146.87140106 278.10377533 -146.87219666 277.17874207 -146.87301636 276.22567749 C-146.85506623 273.96025106 -146.85506623 273.96025106 -148 272 C-148.14907254 270.15073292 -148.23721016 268.296437 -148.29711914 266.44213867 C-148.33706497 265.26100494 -148.3770108 264.07987122 -148.41816711 262.86294556 C-148.45677353 261.56110321 -148.49537994 260.25926086 -148.53515625 258.91796875 C-148.57857894 257.53982002 -148.62217745 256.16167682 -148.66593933 254.78353882 C-148.8070885 250.25177223 -148.93539237 245.71967875 -149.0625 241.1875 C-149.08457016 240.41454967 -149.10664032 239.64159935 -149.12937927 238.84522629 C-149.81433291 214.82074641 -150.21726173 190.80277947 -150.24631882 166.7683754 C-150.24995346 164.59038843 -150.25724106 162.41244078 -150.26541138 160.23446655 C-150.38529164 124.02755597 -150.38529164 124.02755597 -148 110 C-147.67 109.67 -147.34 109.34 -147 109 C-146.59513792 107.0278509 -146.24330063 105.04476787 -145.9140625 103.05859375 C-145.70523438 101.83462891 -145.49640625 100.61066406 -145.28125 99.34960938 C-144.84842483 96.76940459 -144.41866816 94.18868293 -143.9921875 91.60742188 C-142.86823852 85.05219506 -141.56737861 79.13357301 -139 73 C-138.50013173 71.36033547 -138.01735077 69.71521862 -137.5625 68.0625 C-136.33368836 63.85867071 -134.7557601 59.95569424 -132.91796875 55.984375 C-131.85636065 53.68949451 -130.91265685 51.35769687 -130 49 C-129.34 49 -128.68 49 -128 49 C-127.7421875 48.13117188 -127.484375 47.26234375 -127.21875 46.3671875 C-125.97873798 42.94125685 -124.45968465 40.1890832 -122.5 37.125 C-121.58734375 35.67480469 -121.58734375 35.67480469 -120.65625 34.1953125 C-120.1096875 33.47085938 -119.563125 32.74640625 -119 32 C-118.34 32 -117.68 32 -117 32 C-116.773125 31.2575 -116.54625 30.515 -116.3125 29.75 C-114.72462601 26.42302592 -112.93990588 25.18783693 -110 23 C-107.67271375 20.72947683 -105.40078843 18.41858242 -103.15234375 16.0703125 C-98.03201115 11.1451287 -91.99078129 6.65571136 -85 5 C-85 4.34 -85 3.68 -85 3 C-83.39850114 2.32694982 -81.79368971 1.66177773 -80.1875 1 C-79.29417969 0.62875 -78.40085937 0.2575 -77.48046875 -0.125 C-75 -1 -75 -1 -72 -1 C-72 -1.66 -72 -2.32 -72 -3 C-70.14703165 -3.48377991 -68.29255559 -3.96178636 -66.4375 -4.4375 C-65.40496094 -4.70433594 -64.37242187 -4.97117188 -63.30859375 -5.24609375 C-42.66677401 -9.94960167 -19.59902334 -7.88698022 0 0 Z M-76 59 C-87.03511524 72.02641423 -92.4937108 88.54872446 -95.421875 105.11328125 C-96 108 -96 108 -97 109 C-101.86651118 138.61728286 -100.82836747 169.82381983 -99.55078125 199.7109375 C-99.50698334 200.73864761 -99.46318542 201.76635773 -99.4180603 202.82521057 C-99.3503392 204.41087074 -99.3503392 204.41087074 -99.28125 206.02856445 C-98.03652872 235.27002742 -97.74224106 264.4843629 -97.69494629 293.75040054 C-97.68759193 297.08333828 -97.67436351 300.41620336 -97.65942383 303.74911499 C-97.48989348 344.61801395 -97.48989348 344.61801395 -99.26953125 363.7421875 C-99.37762619 364.92450958 -99.48572113 366.10683167 -99.59709167 367.32498169 C-100.35408003 374.21897939 -101.88193937 380.52844823 -104.08818054 387.10354614 C-104.94926264 389.83882948 -105.52829469 392.48736861 -106 395.3125 C-106.70321161 399.08099298 -107.87891681 402.13340904 -109.71875 405.52734375 C-111.52605638 409.01522467 -113.10346461 412.59378293 -114.6875 416.1875 C-114.9971167 416.87730957 -115.3067334 417.56711914 -115.62573242 418.27783203 C-117.18605325 421.82671276 -118.44008549 425.15525369 -119 429 C-119.66 429 -120.32 429 -121 429 C-122.905247 434.10334017 -124.42589023 438.46342706 -124 444 C-123.34 444 -122.68 444 -122 444 C-122 444.66 -122 445.32 -122 446 C-109.30067113 452.67285095 -95.40016673 454.81846132 -81.3203125 456.4375 C-79.00900947 456.7122222 -76.74281877 457.048694 -74.45503235 457.4818573 C-66.49974905 458.98292449 -58.80504841 459.30665808 -50.72265625 459.30078125 C-49.38089367 459.30468384 -48.0391323 459.30902162 -46.69737244 459.31376648 C-43.90473398 459.32116488 -41.11222209 459.32098398 -38.31958008 459.31567383 C-34.77863363 459.30988116 -31.2382106 459.32683621 -27.6973505 459.3500185 C-24.93201275 459.36489965 -22.16679703 459.36560837 -19.40142632 459.36250877 C-17.47357238 459.36325665 -15.54573706 459.37700218 -13.61793518 459.39118958 C-5.36238425 459.34839391 2.04151891 458.15311204 10 456 C11.60353423 455.60161236 13.20760945 455.20538807 14.8125 454.8125 C16.3903125 454.4103125 16.3903125 454.4103125 18 454 C17.75462581 446.52835588 17.23813626 441.22476264 13 435 C10.80019595 428.40058784 10.65960106 418.78567571 13.625 412.375 C17.27690803 406.50904319 22.19356362 403.40417212 28.7109375 401.5078125 C36.08689492 399.87150795 41.45879507 401.29169609 48 405 C58.43558905 412.22463857 62.10778853 424.24852193 64.6875 436.1796875 C65.18562432 439.1139511 65.59789294 442.05121492 66 445 C66.17273438 445.94359375 66.34546875 446.8871875 66.5234375 447.859375 C67.99833219 456.11023515 68.37212837 464.29742318 68.57055664 472.66162109 C68.59883545 473.58152832 68.62711426 474.50143555 68.65625 475.44921875 C68.67494141 476.27768311 68.69363281 477.10614746 68.71289062 477.9597168 C68.82287028 480.22398656 68.82287028 480.22398656 71 482 C85.23633686 484.93825861 101.51139664 484.4198 115 479 C115.70995117 478.72091797 116.41990234 478.44183594 117.15136719 478.15429688 C127.03319747 474.21827822 135.71591367 469.77519918 144 463 C145.0725 462.236875 146.145 461.47375 147.25 460.6875 C151.36846428 456.66263719 154.09309815 451.94173314 157 447 C157.51304687 446.15050781 158.02609375 445.30101562 158.5546875 444.42578125 C161.42534046 439.59065101 161.42534046 439.59065101 162 434 C162.66 434 163.32 434 164 434 C164.23074219 433.13117188 164.46148437 432.26234375 164.69921875 431.3671875 C168.56467062 417.708239 168.56467062 417.708239 175.578125 413.42578125 C179.85770258 411.64262393 183.78813462 411.21119883 188.375 410.8125 C189.62216797 410.6897168 189.62216797 410.6897168 190.89453125 410.56445312 C192.92868087 410.36571437 194.96422949 410.18138416 197 410 C197 410.66 197 411.32 197 412 C197.53109375 412.23074219 198.0621875 412.46148438 198.609375 412.69921875 C203.217267 414.82658495 206.14103839 416.65861384 209 421 C209.52207031 421.71542969 210.04414063 422.43085937 210.58203125 423.16796875 C212.3858129 426.77056296 212.4412191 429.93864233 212.375 433.875 C212.39240234 434.89787109 212.39240234 434.89787109 212.41015625 435.94140625 C212.38123917 441.00189568 211.13982646 444.43391362 209 449 C208.74609778 451.79340157 208.74609778 451.79340157 209 454 C213.01936016 456.00968008 218.00974783 455.70520978 222.4375 456.0625 C224.00274414 456.19881836 224.00274414 456.19881836 225.59960938 456.33789062 C232.41618678 456.90064965 239.16143046 457.11472684 246 457 C245.95359375 455.85402344 245.9071875 454.70804688 245.859375 453.52734375 C245.82183091 451.99742209 245.78543359 450.46747199 245.75 448.9375 C245.71648437 448.18533203 245.68296875 447.43316406 245.6484375 446.65820312 C245.53155116 439.90801688 247.35377999 435.94083964 251.9296875 430.85546875 C258.16324568 425.51063071 263.14491315 423.48884176 271.4140625 423.6875 C284.18303797 425.23057861 291.56709266 435.64371931 299 445 C300.60221347 446.9391155 302.206332 448.87665876 303.8125 450.8125 C306.7745203 454.42820754 309.42607608 458.09759922 312 462 C314.60234132 465.38610529 317.30193404 468.69000156 320 472 C320.81210937 473.02351563 321.62421875 474.04703125 322.4609375 475.1015625 C328.53569037 482.68385833 334.74554407 489.42441475 344 493 C346.98158557 492.79184002 347.95874153 492.04064836 350.11328125 489.91796875 C359.63081407 479.06264036 359.63081407 479.06264036 364 466 C364.99 465.67 365.98 465.34 367 465 C369.3168713 458.27653035 369.11791716 452.08598156 368.74609375 445.06640625 C368.55662822 438.18992185 370.27410652 433.29140518 374.67578125 427.9765625 C381.46743643 422.36817898 388.08223564 421.45312025 396.77734375 421.6328125 C402.76323013 422.31484077 406.83906235 424.55031637 410.8125 429.0546875 C420.32648924 442.2736437 417.40544681 458.8585714 415 474 C420.15817574 476.46904735 424.62604867 477.63238754 430.30078125 478.16796875 C431.08141434 478.24734177 431.86204742 478.32671478 432.66633606 478.40849304 C441.16917988 479.20967803 449.65251569 479.35229743 458.1875 479.3125 C458.98716187 479.31100952 459.78682373 479.30951904 460.61071777 479.3079834 C490.56887663 479.32762262 490.56887663 479.32762262 519 471 C517.51645657 467.28704323 515.50851688 465.64710957 512.3125 463.3125 C505.15196505 457.7454945 500.09276885 451.55059622 497 443 C496.34 443 495.68 443 495 443 C493.66666667 434.33333333 492.33333333 425.66666667 491 417 C490.34 417 489.68 417 489 417 C489.53509805 356.46364537 489.53509805 356.46364537 492.67871094 327.26416016 C493.2291013 321.67242826 493.49761533 316.07059995 493.70898438 310.45703125 C493.81302036 307.84851932 493.91847849 305.35561694 494.50311279 302.80529785 C495.16110648 299.0904341 495.15570838 295.42580595 495.16113281 291.66601562 C495.16609772 290.8371434 495.17106262 290.00827118 495.17617798 289.15428162 C495.19079553 286.40492913 495.19761386 283.65563504 495.203125 280.90625 C495.20736607 279.47645561 495.20736607 279.47645561 495.21169281 278.01777649 C495.22671119 272.93714117 495.23591404 267.85653423 495.24023438 262.77587891 C495.24455681 258.64915824 495.25819651 254.52265403 495.28125 250.39599609 C495.3947682 229.66122555 495.34352582 209.01861118 493.609375 188.34375 C493.54662636 187.59453781 493.48387772 186.84532562 493.4192276 186.07341003 C492.37899014 174.00413523 490.85042363 162.01393219 488.1875 150.1875 C488.01863281 149.4354126 487.84976563 148.6833252 487.67578125 147.90844727 C485.12286068 136.87238437 481.73691775 126.29910894 477 116 C476.65839844 115.24581787 476.31679688 114.49163574 475.96484375 113.71459961 C462.90483051 84.51998362 462.90483051 84.51998362 441 62 C440.34 62 439.68 62 439 62 C438.67 61.01 438.34 60.02 438 59 C429.3351378 55.38444599 415.05428887 58.14495754 406 59 C406 59.66 406 60.32 406 61 C404.84628906 60.97679687 403.69257812 60.95359375 402.50390625 60.9296875 C394.76263565 60.9399115 384.29828159 61.54583259 378 66.375 C373.4294471 71.17229052 370.2880062 77.29809968 367 83 C365.01874245 86.34485688 363.01959439 89.67815349 361 93 C360.26136719 94.22589844 360.26136719 94.22589844 359.5078125 95.4765625 C355.82954178 101.32749054 352.71000037 104.76333321 346 107 C346 107.66 346 108.32 346 109 C345.45287354 108.9592334 344.90574707 108.9184668 344.34204102 108.87646484 C334.22205544 108.16002439 324.46698203 107.72848215 314.40454102 109.1652832 C307.95957581 110.07597652 301.53800676 110.40640696 295.03686523 110.65771484 C294.25126221 110.68945801 293.46565918 110.72120117 292.65625 110.75390625 C291.97369141 110.77783447 291.29113281 110.8017627 290.58789062 110.82641602 C288.46092937 110.96908295 286.34164972 111.22201517 284.22875977 111.50488281 C277.07521515 112.31511974 269.87287451 112.1635293 262.68359375 112.16796875 C261.07819061 112.17200162 259.47278797 112.1762378 257.86738586 112.18066406 C252.72407948 112.19212179 247.58081507 112.19058895 242.4375 112.1875 C241.56601822 112.18738041 240.69453644 112.18726082 239.79664612 112.1871376 C203.35614573 112.18077934 166.95421559 112.09910115 130.91796875 105.9765625 C125.81129749 105.11269834 120.71153628 104.42555427 115.5625 103.875 C114.80001953 103.78863281 114.03753906 103.70226562 113.25195312 103.61328125 C109.48138231 103.20051676 105.80001315 102.89423423 102 103 C102 102.34 102 101.68 102 101 C100.89096313 100.85751831 100.89096313 100.85751831 99.75952148 100.7121582 C70.14792298 96.83074681 70.14792298 96.83074681 57.63671875 90.875 C54.01586496 89.67341296 50.46236084 89.70670337 46.6875 89.625 C39.53086202 89.31655042 33.71321335 88.88065268 28.52734375 83.4609375 C26.1907782 80.47721823 24.88125037 77.75908407 23.875 74.125 C21.15439795 66.11865683 11.50468334 61.08663337 4.65625 56.77734375 C2.85230608 55.78756428 2.85230608 55.78756428 0 56 C0 55.34 0 54.68 0 54 C-3.99305058 52.31626367 -7.99485298 50.65473196 -12 49 C-12.68835938 48.70480469 -13.37671875 48.40960938 -14.0859375 48.10546875 C-37.21559528 38.66170018 -58.05549274 41.92552946 -76 59 Z " fill="#000000" transform="translate(203,144)"/>
<path d="M0 0 C0 0.66 0 1.32 0 2 C0.721875 2.103125 1.44375 2.20625 2.1875 2.3125 C8.06615207 3.74950384 12.03139093 7.64608762 16.3125 11.6875 C16.88572998 12.2249585 17.45895996 12.76241699 18.04956055 13.31616211 C19.18910107 14.38822667 20.32629677 15.46279004 21.4609375 16.54003906 C22.74797396 17.76092708 24.04470949 18.97157982 25.34375 20.1796875 C30.64824229 25.25263449 34.83389966 30.97245058 39 37 C43.25794687 31.54109375 47.05276841 25.91285952 50.66381836 20.01318359 C54.53711201 13.81764872 59.88651828 7.37116057 67 5 C69.28932678 4.87906505 71.58251324 4.82461674 73.875 4.8125 C75.08929688 4.79832031 76.30359375 4.78414063 77.5546875 4.76953125 C83.69741107 5.18043906 88.50709782 7.89689298 93 12 C96.90498929 17.12655005 99.13973674 21.67277907 99.25 28.1875 C99.28867187 29.53908203 99.28867187 29.53908203 99.328125 30.91796875 C98.49453051 38.74780268 94.44640549 44.91949163 90.25 51.375 C89.43994507 52.63497803 89.43994507 52.63497803 88.61352539 53.92041016 C87.08553452 56.28687942 85.54559879 58.64500536 84 61 C83.35417969 61.99 82.70835937 62.98 82.04296875 64 C74.51379972 75.1380408 65.9321859 85.09265952 55 93 C54.29746094 93.54785156 53.59492188 94.09570312 52.87109375 94.66015625 C45.96542653 99.36439635 37.97463005 99.10320969 30 98 C22.61901711 95.49258476 17.45583486 91.28199669 13 85 C11.81254598 83.35413349 10.62504102 81.70830374 9.4375 80.0625 C8.76976562 79.13308594 8.10203125 78.20367187 7.4140625 77.24609375 C4.50227313 73.27535769 1.4117763 69.45007554 -1.6875 65.625 C-2.5074646 64.60805054 -2.5074646 64.60805054 -3.34399414 63.57055664 C-6.38796731 59.83677054 -9.5305351 56.3526479 -13 53 C-13.89525391 52.08734375 -13.89525391 52.08734375 -14.80859375 51.15625 C-17.49117885 48.4286335 -20.03807523 45.97182433 -23.125 43.6875 C-28.90597925 38.28354113 -31.2932664 32.316173 -31.625 24.4375 C-31.29302263 16.60836702 -28.654112 11.71443273 -23.25 6.1875 C-15.45078987 0.93803164 -9.42451249 -0.6341728 0 0 Z " fill="#010100" transform="translate(385,339)"/>
<path d="M0 0 C5.49837179 3.77062255 9.91632532 8.29795393 11.4609375 15 C11.70829657 16.65797433 11.86361083 18.3292327 12 20 C12.66 20 13.32 20 14 20 C14.48444764 21.99872739 14.9622766 23.99905937 15.4375 26 C15.70433594 27.11375 15.97117187 28.2275 16.24609375 29.375 C19.39619415 44.52159675 20.92491771 64.25013715 12.75 77.875 C9.87378946 82.06400374 7.16237792 85.10443275 3 88 C2.278125 88.52980469 1.55625 89.05960937 0.8125 89.60546875 C-2.78557206 91.38951282 -5.95282579 91.40413958 -9.875 91.3125 C-10.55691406 91.31572266 -11.23882813 91.31894531 -11.94140625 91.32226562 C-21.03720284 91.22697633 -27.64816121 88.43852881 -33.9609375 82 C-38.78536717 76.64389849 -38.78536717 76.64389849 -40 73 C-40.66 72.67 -41.32 72.34 -42 72 C-45.81640326 63.33609194 -46.64030707 54.69382933 -46.52148438 45.32397461 C-46.49989501 43.30267049 -46.52148485 41.28487421 -46.546875 39.26367188 C-46.51531147 31.25837276 -45.54801461 25.16306659 -42 18 C-41.34698196 16.41961632 -40.70025162 14.83660581 -40.0625 13.25 C-36.22686709 4.83826452 -30.31814997 0.42785108 -22.125 -3.3125 C-13.93210232 -5.11493749 -7.2228633 -4.33640306 0 0 Z " fill="#010100" transform="translate(615,293)"/>
<path d="M0 0 C10.75609482 7.82261442 14.85479156 14.00422298 16.98681641 27.09057617 C17.36030812 29.52907772 17.70166784 31.97034675 18.0390625 34.4140625 C18.44272784 37.29866213 18.98404059 39.80440618 19.8046875 42.625 C21.31333438 48.39690211 21.19681376 54.36994006 21.23046875 60.29882812 C21.24990513 62.36491527 21.31209178 64.42702847 21.375 66.4921875 C21.51312707 75.08299397 20.41127304 81.31548143 14.75 88 C12.30078125 90.25390625 12.30078125 90.25390625 10.0625 91.5625 C9.31613281 92.01753906 8.56976563 92.47257812 7.80078125 92.94140625 C0.65590493 96.62952336 -9.06237706 95.6920569 -16.73828125 93.94921875 C-26.77560004 90.1559552 -34.98699157 81.73344328 -39.37109375 72.06640625 C-39.66113281 71.38449219 -39.95117188 70.70257813 -40.25 70 C-40.55035156 69.36964844 -40.85070312 68.73929687 -41.16015625 68.08984375 C-47.38367298 53.06656384 -41.85245608 36.62136646 -37.25 22 C-36.59 22 -35.93 22 -35.25 22 C-35.20875 21.030625 -35.1675 20.06125 -35.125 19.0625 C-34.21052556 12.71269863 -29.94285069 7.26006302 -25.25 3.0625 C-17.90576074 -1.98666449 -8.44156735 -2.59740534 0 0 Z " fill="#010100" transform="translate(243.25,291)"/>
<path d="M0 0 C0.66 0.33 1.32 0.66 2 1 C1.154375 1.515625 0.30875 2.03125 -0.5625 2.5625 C-4.54229113 5.19353136 -7.72851673 8.55429572 -11 12 C-11.66 11.67 -12.32 11.34 -13 11 C-5.78350515 1.92783505 -5.78350515 1.92783505 0 0 Z " fill="#1A2714" transform="translate(224,291)"/>
<path d="M0 0 C0.66 0.33 1.32 0.66 2 1 C-0.97 3.97 -3.94 6.94 -7 10 C-7 5.69032084 -4.83274712 4.10253255 -2 1 C-1.34 0.67 -0.68 0.34 0 0 Z " fill="#121B0E" transform="translate(365,343)"/>
<path d="M0 0 C0.66 0.33 1.32 0.66 2 1 C-1.3 4.3 -4.6 7.6 -8 11 C-8 8 -8 8 -5.6875 5.5 C-4.800625 4.675 -3.91375 3.85 -3 3 C-2.401875 2.401875 -1.80375 1.80375 -1.1875 1.1875 C-0.795625 0.795625 -0.40375 0.40375 0 0 Z " fill="#182312" transform="translate(447,346)"/>
<path d="M0 0 C-1.5830577 4.2742558 -4.50568404 6.26531794 -8 9 C-6.68994234 5.06982701 -4.75047804 0 0 0 Z " fill="#172312" transform="translate(378,558)"/>
</svg>
