<svg width="73" height="73" viewBox="0 0 73 73" fill="none" xmlns="http://www.w3.org/2000/svg">
<path d="M19.2081 18.7853C18.4477 16.8447 18.4781 14.6274 18.8158 12.5986C21.1395 13.2968 23.3222 14.3985 25.2641 15.8532C26.1158 16.5041 27.232 16.714 28.2723 16.4007C30.9412 15.6002 33.7137 15.1984 36.5 15.2083C39.423 15.2083 42.2001 15.6342 44.7216 16.3976C45.7619 16.714 46.8782 16.501 47.7268 15.8501C49.6678 14.3957 51.8495 13.2941 54.1721 12.5955C54.5097 14.6243 54.5371 16.8417 53.7828 18.7792C53.3265 19.9472 53.5546 21.2917 54.4154 22.2467C56.6176 24.6892 57.7917 27.4967 57.7917 30.4167C57.7917 36.8467 51.7996 43.1521 42.1758 45.0714C39.7668 45.552 38.8269 48.5845 40.6701 50.3213C41.8533 51.4346 42.5833 53.0041 42.5833 54.75V63.875C42.5833 64.6817 42.9038 65.4554 43.4742 66.0258C44.0446 66.5962 44.8183 66.9167 45.625 66.9167C46.4317 66.9167 47.2054 66.5962 47.7758 66.0258C48.3462 65.4554 48.6667 64.6817 48.6667 63.875V54.75C48.6667 53.0162 48.3017 51.3677 47.6508 49.8742C56.8275 46.6896 63.875 39.5204 63.875 30.4167C63.875 26.3195 62.4028 22.554 59.9604 19.3997C60.5991 16.9056 60.5413 14.3932 60.298 12.4647C60.082 10.7371 59.7809 8.47408 58.5643 7.12358C56.7545 5.11912 53.7584 6.29928 51.6293 7.02624C49.3442 7.79645 47.1708 8.86521 45.1657 10.2048C42.3342 9.4811 39.4225 9.1183 36.5 9.12499C33.4766 9.12499 30.5596 9.5052 27.8282 10.2078C25.8231 8.86826 23.6498 7.79949 21.3647 7.02929C19.2355 6.29929 16.2364 5.11912 14.4266 7.12358C13.1856 8.49841 12.9271 10.582 12.705 12.3522L12.6898 12.4678C12.4465 14.3992 12.3918 16.9147 13.0305 19.4119C10.5972 22.5631 9.12501 26.3226 9.12501 30.4167C9.12501 39.5173 16.1725 46.6896 25.3493 49.8742C24.6862 51.3932 24.3405 53.0317 24.3333 54.6892L23.8223 54.7926C21.6415 55.0937 20.2453 54.823 19.2963 54.4215C16.9847 53.4421 15.7923 50.9753 14.3384 49.0895C13.432 47.9184 12.1119 46.4554 10.0862 45.7801C9.70711 45.6539 9.30689 45.6036 8.90838 45.632C8.50986 45.6605 8.12085 45.7671 7.76356 45.9459C7.04197 46.307 6.49338 46.9399 6.23846 47.7055C5.98355 48.4711 6.04319 49.3065 6.40427 50.0281C6.76534 50.7497 7.39828 51.2983 8.16384 51.5532C9.86109 52.1189 11.0352 55.0268 12.1119 56.3165C13.2465 57.6791 14.7551 59.1026 16.9178 60.0212C18.9922 60.9033 21.4285 61.2166 24.3333 60.8607V63.875C24.3333 64.6817 24.6538 65.4554 25.2242 66.0258C25.7946 66.5962 26.5683 66.9167 27.375 66.9167C28.1817 66.9167 28.9554 66.5962 29.5258 66.0258C30.0962 65.4554 30.4167 64.6817 30.4167 63.875V54.75C30.4167 53.0041 31.1467 51.4346 32.3299 50.3213C34.1762 48.5815 33.2333 45.552 30.8243 45.0714C21.1974 43.1521 15.2083 36.8467 15.2083 30.4167C15.2083 27.5027 16.3794 24.6953 18.5785 22.2528C19.4393 21.2977 19.6644 19.9533 19.2081 18.7853Z" fill="#C93639"/>
</svg>
