<svg width="87" height="87" viewBox="0 0 87 87" fill="none" xmlns="http://www.w3.org/2000/svg">
<path fill-rule="evenodd" clip-rule="evenodd" d="M65.25 10.875C68.1342 10.875 70.9003 12.0208 72.9398 14.0602C74.9792 16.0997 76.125 18.8658 76.125 21.75V65.25C76.125 68.1342 74.9792 70.9003 72.9398 72.9398C70.9003 74.9792 68.1342 76.125 65.25 76.125H21.75C18.8658 76.125 16.0997 74.9792 14.0602 72.9398C12.0208 70.9003 10.875 68.1342 10.875 65.25V21.75C10.875 18.8658 12.0208 16.0997 14.0602 14.0602C16.0997 12.0208 18.8658 10.875 21.75 10.875H65.25ZM29 36.25C28.0386 36.25 27.1166 36.6319 26.4367 37.3117C25.7569 37.9916 25.375 38.9136 25.375 39.875V58C25.375 58.9614 25.7569 59.8834 26.4367 60.5633C27.1166 61.2431 28.0386 61.625 29 61.625C29.9614 61.625 30.8834 61.2431 31.5633 60.5633C32.2431 59.8834 32.625 58.9614 32.625 58V39.875C32.625 38.9136 32.2431 37.9916 31.5633 37.3117C30.8834 36.6319 29.9614 36.25 29 36.25ZM39.875 32.625C38.9136 32.625 37.9916 33.0069 37.3117 33.6867C36.6319 34.3666 36.25 35.2886 36.25 36.25V58C36.25 58.9614 36.6319 59.8834 37.3117 60.5633C37.9916 61.2431 38.9136 61.625 39.875 61.625C40.8364 61.625 41.7584 61.2431 42.4383 60.5633C43.1181 59.8834 43.5 58.9614 43.5 58V44.7325C44.6056 43.4855 46.4725 42.021 48.5496 41.1329C49.7567 40.6181 51.5729 40.4079 52.8344 40.8066C53.2529 40.9128 53.6256 41.1519 53.8965 41.4881C54.085 41.7419 54.375 42.3074 54.375 43.5V58C54.375 58.9614 54.7569 59.8834 55.4367 60.5633C56.1166 61.2431 57.0386 61.625 58 61.625C58.9614 61.625 59.8834 61.2431 60.5633 60.5633C61.2431 59.8834 61.625 58.9614 61.625 58V43.5C61.625 41.0712 61.0088 38.9107 59.7255 37.178C58.5447 35.6068 56.892 34.4546 55.0094 33.8901C51.7396 32.8643 48.1183 33.4334 45.7004 34.4701C44.9263 34.8031 44.1722 35.1807 43.442 35.6011C43.29 34.7659 42.8497 34.0105 42.1979 33.4666C41.546 32.9227 40.724 32.6249 39.875 32.625ZM29 25.375C28.0386 25.375 27.1166 25.7569 26.4367 26.4367C25.7569 27.1166 25.375 28.0386 25.375 29C25.375 29.9614 25.7569 30.8834 26.4367 31.5633C27.1166 32.2431 28.0386 32.625 29 32.625C29.9614 32.625 30.8834 32.2431 31.5633 31.5633C32.2431 30.8834 32.625 29.9614 32.625 29C32.625 28.0386 32.2431 27.1166 31.5633 26.4367C30.8834 25.7569 29.9614 25.375 29 25.375Z" fill="#C93639"/>
</svg>
